HIERARCHY
ROOT Hips
{
	OFFSET 0.00 0.00 0.00
	CHANNELS 6 Xposition Yposition Zposition Xrotation Yrotation Zrotation
	JOINT Spine
	{
		OFFSET 0.00000 3.24121 0.00000
		CHANNELS 3 Xrotation Yrotation Zrotation
		JOINT Head
		{
			OFFSET 0.00000 18.38296 0.00000
			CHANNELS 3 Xrotation Yrotation Zrotation
			End Site
			{
				OFFSET 0.00000 4.52755 0.00000
			}
		}
		JOINT LeftShoulder
		{
			OFFSET 0.00000 12.82826 0.00000
			CHANNELS 3 Xrotation Yrotation Zrotation
			JOINT LeftArm
			{
				OFFSET 7.74805 0.00000 0.00000
				CHANNELS 3 Xrotation Yrotation Zrotation
				JOINT LeftForeArm
				{
					OFFSET 10.63561 0.00000 0.00000
					CHANNELS 3 Yrotation Zrotation Xrotation
					JOINT LeftHand
					{
						OFFSET 8.34675 0.00000 0.00000
						CHANNELS 3 Xrotation Yrotation Zrotation
						JOINT LeftHandThumb1
						{
							OFFSET 0.00000 0.00000 0.00000
							CHANNELS 3 Xrotation Zrotation Yrotation
							End Site
							{
								OFFSET 0.00000 0.00000 3.93700
							}
						}
						End Site
						{
							OFFSET 3.93700 0.00000 0.00000
						}
					}
				}
			}
		}
		JOINT RightShoulder
		{
			OFFSET 0.00000 12.82826 0.00000
			CHANNELS 3 Xrotation Yrotation Zrotation
			JOINT RightArm
			{
				OFFSET -7.74805 0.00000 0.00000
				CHANNELS 3 Xrotation Yrotation Zrotation
				JOINT RightForeArm
				{
					OFFSET -10.63561 0.00000 0.00000
					CHANNELS 3 Yrotation Zrotation Xrotation
					JOINT RightHand
					{
						OFFSET -8.34675 0.00000 0.00000
						CHANNELS 3 Xrotation Yrotation Zrotation
						JOINT RightHandThumb1
						{
							OFFSET 0.00000 0.00000 0.00000
							CHANNELS 3 Xrotation Zrotation Yrotation
							End Site
							{
								OFFSET 0.00000 0.00000 3.93700
							}
						}
						End Site
						{
							OFFSET -3.93700 0.00000 0.00000
						}
					}
				}
			}
		}
	}
	JOINT LeftUpLeg
	{
		OFFSET 3.43402 0.00000 0.00000
		CHANNELS 3 Xrotation Yrotation Zrotation
		JOINT LeftLeg
		{
			OFFSET 0.00000 -15.71302 0.00000
			CHANNELS 3 Xrotation Yrotation Zrotation
			JOINT LeftFoot
			{
				OFFSET 0.00000 -14.43512 0.00000
				CHANNELS 3 Xrotation Yrotation Zrotation
				JOINT LeftToeBase
				{
					OFFSET 0.00000 -1.27828 4.77061
					CHANNELS 3 Xrotation Yrotation Zrotation
					End Site
					{
						OFFSET 0.00000 0.00000 2.95275
					}
				}
			}
		}
	}
	JOINT RightUpLeg
	{
		OFFSET -3.43402 0.00000 0.00000
		CHANNELS 3 Xrotation Yrotation Zrotation
		JOINT RightLeg
		{
			OFFSET 0.00000 -15.71302 0.00000
			CHANNELS 3 Xrotation Yrotation Zrotation
			JOINT RightFoot
			{
				OFFSET 0.00000 -14.43512 0.00000
				CHANNELS 3 Xrotation Yrotation Zrotation
				JOINT RightToeBase
				{
					OFFSET 0.00000 -1.27828 4.77061
					CHANNELS 3 Xrotation Yrotation Zrotation
					End Site
					{
						OFFSET 0.00000 0.00000 2.95275
					}
				}
			}
		}
	}
}
MOTION
Frames: 21
Frame Time: 0.008333
 -0.2499 32.4013 -6.1958 33.6203 3.3132 -1.8220 -39.5063 -2.7512 -1.0793 10.4270 -7.2049 -7.0405 29.3390 31.0169 24.6743 -60.0509 -1.9124 -30.6117 1.2364 0.0000 14.9389 2.6903 20.3466 -7.6964 33.1476 -0.0000 26.2537 29.7820 -35.7823 -25.5118 -54.2237 7.9566 40.8681 -5.2238 -0.0000 -7.6456 -1.0836 6.5291 9.4446 32.8623 0.0000 -24.3270 -28.7938 1.1848 1.7351 0.7015 0.0000 -0.0000 -6.9537 -0.7949 -1.1830 2.8030 -0.0000 0.0000 -27.1395 -7.6000 1.7332 -0.9924 -0.0000 0.0000 -9.6660 -8.4834 7.8973 15.4278 -0.0000 0.0000
 -0.2504 32.4012 -6.1923 33.6436 3.3163 -1.8228 -39.5280 -2.7492 -1.0797 10.4285 -7.2298 -7.0360 29.3322 31.0201 24.6773 -60.0456 -1.9007 -30.6126 1.2318 0.0000 14.9272 2.6945 20.3508 -7.7070 33.1476 -0.0000 26.2537 29.7622 -35.7879 -25.5168 -54.2041 7.9740 40.8493 -5.2325 -0.0000 -7.6559 -1.0895 6.5539 9.4597 32.8623 0.0000 -24.3270 -28.8133 1.1871 1.7351 0.7057 0.0000 -0.0000 -6.9498 -0.8086 -1.1899 2.7996 0.0000 -0.0000 -27.1535 -7.6058 1.7352 -0.9944 0.0000 0.0000 -9.7107 -8.4587 7.7513 15.5582 0.0000 0.0000
 -0.2503 32.4006 -6.1896 33.6604 3.3135 -1.8246 -39.5351 -2.7262 -1.0741 10.4179 -7.2773 -7.0274 29.3253 31.0189 24.6845 -60.0700 -1.8810 -30.6224 1.2366 0.0000 14.9346 2.6829 20.3414 -7.6773 33.1476 -0.0000 26.2537 29.7781 -35.8151 -25.4920 -54.1977 7.9812 40.8252 -5.2157 -0.0000 -7.6506 -1.0872 6.5401 9.4600 32.8623 0.0000 -24.3270 -28.8242 1.1779 1.7358 0.7060 0.0000 0.0000 -6.9632 -0.7764 -1.2080 2.8000 0.0000 0.0000 -27.1616 -7.6129 1.7358 -1.0033 -0.0000 0.0000 -9.6731 -8.4701 7.8847 15.4529 -0.0000 0.0000
 -0.2506 32.4004 -6.1863 33.6677 3.3189 -1.8253 -39.5376 -2.7240 -1.0743 10.4144 -7.3050 -7.0184 29.3178 31.0156 24.6874 -60.0601 -1.8685 -30.6221 1.2350 0.0000 14.9172 2.6843 20.3600 -7.6748 33.1476 -0.0000 26.2537 29.7643 -35.8198 -25.4943 -54.1802 7.9892 40.8128 -5.2164 -0.0000 -7.6399 -1.0819 6.5573 9.3901 32.8623 0.0000 -24.3270 -28.8234 1.1731 1.7352 0.7003 0.0000 0.0000 -6.9731 -0.7851 -1.2049 2.8320 0.0000 -0.0000 -27.1615 -7.6119 1.7357 -1.0022 -0.0000 0.0000 -9.7149 -8.4531 7.7402 15.5234 -0.0000 -0.0000
 -0.2511 32.3999 -6.1827 33.6824 3.3117 -1.8248 -39.5527 -2.7144 -1.0697 10.4175 -7.3344 -7.0012 29.3185 31.0128 24.6927 -60.0615 -1.8438 -30.6200 1.2306 0.0000 14.9321 2.6915 20.3763 -7.6895 33.1476 -0.0000 26.2537 29.7720 -35.8276 -25.4888 -54.1644 8.0164 40.7982 -5.2311 -0.0000 -7.6518 -1.0810 6.5574 9.3819 32.8623 0.0000 -24.3270 -28.8329 1.1928 1.7391 0.7051 0.0000 -0.0000 -6.9846 -0.8079 -1.1964 2.8439 -0.0000 0.0000 -27.1668 -7.6074 1.7387 -1.0082 0.0000 -0.0000 -9.7071 -8.4472 7.7689 15.4860 -0.0000 -0.0000
 -0.2514 32.4001 -6.1796 33.6974 3.3216 -1.8277 -39.5635 -2.7114 -1.0725 10.4294 -7.3771 -6.9882 29.3069 31.0147 24.6968 -60.0743 -1.8400 -30.6347 1.2473 0.0000 14.9659 2.6785 20.3833 -7.6500 33.1476 -0.0000 26.2537 29.7738 -35.8411 -25.4803 -54.1444 8.0287 40.7878 -5.2223 -0.0000 -7.6700 -1.0796 6.5609 9.3655 32.8623 0.0000 -24.3270 -28.8437 1.1737 1.7347 0.7075 -0.0000 -0.0000 -6.9758 -0.7911 -1.1800 2.7727 -0.0000 -0.0000 -27.1708 -7.6129 1.7361 -1.0166 0.0000 -0.0000 -9.7204 -8.4502 7.7740 15.5665 -0.0000 0.0000
 -0.2514 32.3998 -6.1763 33.7115 3.3183 -1.8245 -39.5763 -2.7088 -1.0720 10.4340 -7.3925 -6.9767 29.3318 31.0331 24.6788 -60.0800 -1.8427 -30.6385 1.2452 0.0000 14.9749 2.6807 20.3818 -7.6569 33.1476 -0.0000 26.2537 29.8036 -35.8486 -25.4580 -54.1644 8.0343 40.7700 -5.2240 -0.0000 -7.7067 -1.0780 6.5463 9.3720 32.8623 0.0000 -24.3270 -28.8520 1.1793 1.7348 0.7071 0.0000 -0.0000 -6.9836 -0.7966 -1.2269 2.8271 -0.0000 -0.0000 -27.1750 -7.6132 1.7354 -1.0271 0.0000 -0.0000 -9.7158 -8.4515 7.7372 15.5075 0.0000 0.0000
 -0.2515 32.3998 -6.1736 33.7293 3.3204 -1.8271 -39.5923 -2.6949 -1.0676 10.4446 -7.4248 -6.9705 29.3173 31.0122 24.6839 -60.0423 -1.8550 -30.6364 1.2536 0.0000 14.9695 2.6779 20.3655 -7.6546 33.1476 -0.0000 26.2537 29.8167 -35.8686 -25.4491 -54.1909 8.0044 40.7696 -5.2149 -0.0000 -7.7104 -1.0784 6.5467 9.3751 32.8623 0.0000 -24.3270 -28.8661 1.1779 1.7345 0.7088 0.0000 0.0000 -6.9812 -0.7981 -1.1913 2.8108 0.0000 0.0000 -27.1932 -7.6340 1.7361 -1.0169 -0.0000 -0.0000 -9.7173 -8.4268 7.7539 15.5170 0.0000 0.0000
 -0.2519 32.3994 -6.1700 33.7357 3.3220 -1.8270 -39.5977 -2.6904 -1.0652 10.4572 -7.4359 -6.9582 29.3194 31.0131 24.6746 -60.0638 -1.8430 -30.6423 1.2536 0.0000 14.9941 2.6696 20.3565 -7.6343 33.1476 -0.0000 26.2537 29.7860 -35.8646 -25.4600 -54.1606 8.0143 40.7641 -5.2219 -0.0000 -7.7666 -1.0804 6.5476 9.3907 32.8623 0.0000 -24.3270 -28.8626 1.1611 1.7342 0.7047 -0.0000 -0.0000 -6.9907 -0.7799 -1.1999 2.8173 0.0000 -0.0000 -27.1859 -7.6204 1.7359 -1.0292 -0.0000 0.0000 -9.7191 -8.4496 7.7711 15.5431 -0.0000 -0.0000
 -0.2521 32.3993 -6.1665 33.7407 3.3201 -1.8261 -39.6037 -2.6832 -1.0641 10.4780 -7.4520 -6.9439 29.3453 31.0240 24.6598 -60.0951 -1.8302 -30.6532 1.2427 0.0000 14.9901 2.6597 20.3829 -7.5970 33.1476 -0.0000 26.2537 29.7875 -35.8699 -25.4494 -54.2006 7.9939 40.7671 -5.2368 -0.0000 -7.7680 -1.0784 6.5535 9.3659 32.8623 0.0000 -24.3270 -28.8635 1.1711 1.7347 0.7096 -0.0000 0.0000 -6.9884 -0.7858 -1.1945 2.7863 -0.0000 -0.0000 -27.1833 -7.6268 1.7363 -1.0347 -0.0000 -0.0000 -9.6734 -8.4438 7.8536 15.3695 0.0000 -0.0000
 -0.2528 32.3994 -6.1637 33.7643 3.3210 -1.8259 -39.6250 -2.6650 -1.0667 10.4860 -7.4776 -6.9251 29.3413 31.0215 24.6575 -60.1107 -1.8242 -30.6676 1.2232 0.0000 14.9863 2.6515 20.4058 -7.5657 33.1476 -0.0000 26.2537 29.7790 -35.8819 -25.4309 -54.2352 7.9650 40.7637 -5.2400 -0.0000 -7.7681 -1.0830 6.5514 9.4074 32.8623 0.0000 -24.3270 -28.8805 1.1641 1.7350 0.7070 -0.0000 0.0000 -6.9906 -0.7795 -1.2293 2.8099 0.0000 0.0000 -27.2034 -7.6340 1.7365 -1.0293 -0.0000 -0.0000 -9.7233 -8.4208 7.7598 15.5183 -0.0000 0.0000
 -0.2536 32.3993 -6.1622 33.7927 3.3169 -1.8261 -39.6515 -2.6596 -1.0636 10.5044 -7.4778 -6.9117 29.3177 31.0103 24.6662 -60.1196 -1.7909 -30.6761 1.2144 0.0000 15.0133 2.6382 20.3978 -7.5310 33.1476 -0.0000 26.2537 29.7555 -35.8819 -25.4350 -54.2736 7.9361 40.7751 -5.2490 -0.0000 -7.7285 -1.0826 6.5613 9.3906 32.8623 0.0000 -24.3270 -28.9078 1.1538 1.7371 0.7106 0.0000 0.0000 -6.9999 -0.7775 -1.1975 2.7883 -0.0000 0.0000 -27.2299 -7.6240 1.7377 -1.0270 0.0000 -0.0000 -9.7273 -8.4327 7.7838 15.5027 -0.0000 -0.0000
 -0.2529 32.3994 -6.1576 33.7967 3.3175 -1.8230 -39.6618 -2.6563 -1.0586 10.5276 -7.4827 -6.9124 29.3356 31.0114 24.6497 -60.1331 -1.7791 -30.6887 1.2108 0.0000 14.9948 2.6387 20.3939 -7.5338 33.1476 -0.0000 26.2537 29.7431 -35.8849 -25.4415 -54.2711 7.9427 40.7803 -5.2610 -0.0000 -7.7647 -1.0848 6.5584 9.4133 32.8623 0.0000 -24.3270 -28.8985 1.1554 1.7328 0.6997 0.0000 -0.0000 -6.9912 -0.7765 -1.1956 2.7921 0.0000 -0.0000 -27.2206 -7.6298 1.7338 -1.0396 -0.0000 0.0000 -9.7320 -8.4278 7.7945 15.5682 -0.0000 0.0000
 -0.2545 32.3989 -6.1556 33.8177 3.3119 -1.8292 -39.6800 -2.6449 -1.0515 10.5402 -7.4964 -6.8997 29.2878 30.9910 24.6653 -60.1081 -1.7812 -30.6987 1.2154 0.0000 14.9955 2.6429 20.4020 -7.5428 33.1476 -0.0000 26.2537 29.7390 -35.8953 -25.4352 -54.3014 7.9222 40.7923 -5.2694 -0.0000 -7.7384 -1.0871 6.5571 9.4344 32.8623 0.0000 -24.3270 -28.9173 1.1547 1.7427 0.7035 -0.0000 0.0000 -6.9939 -0.7733 -1.2000 2.7714 -0.0000 0.0000 -27.2348 -7.6220 1.7458 -1.0440 -0.0000 -0.0000 -9.7283 -8.4271 7.7503 15.5280 -0.0000 0.0000
 -0.2553 32.3986 -6.1519 33.8237 3.3145 -1.8294 -39.6893 -2.6423 -1.0508 10.5622 -7.5000 -6.8899 29.2994 31.0017 24.6594 -60.1505 -1.7706 -30.7227 1.2386 0.0000 14.9773 2.6482 20.3671 -7.5702 33.1476 -0.0000 26.2537 29.7149 -35.8909 -25.4408 -54.2991 7.9172 40.7993 -5.2784 -0.0000 -7.7269 -1.0944 6.5866 9.4550 32.8623 0.0000 -24.3270 -28.9172 1.1599 1.7428 0.7050 0.0000 -0.0000 -7.0112 -0.7767 -1.2068 2.8031 -0.0000 0.0000 -27.2292 -7.6100 1.7453 -1.0551 -0.0000 -0.0000 -9.7186 -8.4349 7.7507 15.4999 0.0000 0.0000
 -0.2558 32.3983 -6.1482 33.8362 3.3140 -1.8263 -39.7050 -2.6436 -1.0522 10.5805 -7.5039 -6.8824 29.3096 31.0155 24.6526 -60.1854 -1.7471 -30.7441 1.2361 0.0000 14.9902 2.6634 20.3481 -7.6197 33.1476 -0.0000 26.2537 29.7288 -35.8927 -25.4268 -54.3182 7.9170 40.8024 -5.2765 -0.0000 -7.7043 -1.1020 6.6002 9.5004 32.8623 0.0000 -24.3270 -28.9191 1.1589 1.7412 0.6975 0.0000 -0.0000 -7.0087 -0.7800 -1.2054 2.7817 0.0000 0.0000 -27.2364 -7.6136 1.7435 -1.0521 0.0000 -0.0000 -9.7325 -8.4324 7.7427 15.4972 0.0000 -0.0000
 -0.2554 32.3978 -6.1442 33.8417 3.3130 -1.8234 -39.7154 -2.6431 -1.0484 10.5996 -7.4986 -6.8797 29.3131 31.0161 24.6466 -60.1688 -1.7410 -30.7611 1.2331 0.0000 14.9815 2.6725 20.3329 -7.6509 33.1476 -0.0000 26.2537 29.7219 -35.8903 -25.4306 -54.3140 7.9218 40.8133 -5.2860 -0.0000 -7.7101 -1.1046 6.6301 9.4806 32.8623 0.0000 -24.3270 -28.9125 1.1553 1.7373 0.6914 0.0000 0.0000 -7.0091 -0.7622 -1.2138 2.8035 -0.0000 -0.0000 -27.2306 -7.6183 1.7393 -1.0620 0.0000 0.0000 -9.6903 -8.4439 7.8815 15.3720 -0.0000 -0.0000
 -0.2557 32.3974 -6.1403 33.8474 3.3099 -1.8206 -39.7248 -2.6449 -1.0465 10.6161 -7.4901 -6.8702 29.2993 31.0141 24.6475 -60.1766 -1.7260 -30.7744 1.2477 0.0000 15.0096 2.6903 20.3317 -7.7020 33.1476 -0.0000 26.2537 29.7339 -35.8955 -25.4253 -54.3224 7.9274 40.8343 -5.2839 -0.0000 -7.7375 -1.1094 6.6717 9.4630 32.8623 0.0000 -24.3270 -28.9076 1.1553 1.7379 0.6862 -0.0000 -0.0000 -7.0091 -0.7597 -1.2213 2.7849 -0.0000 -0.0000 -27.2248 -7.5991 1.7423 -1.0695 -0.0000 -0.0000 -9.7364 -8.4376 7.7315 15.4747 0.0000 -0.0000
 -0.2560 32.3969 -6.1357 33.8525 3.3146 -1.8210 -39.7340 -2.6466 -1.0458 10.6347 -7.4983 -6.8682 29.3134 31.0180 24.6416 -60.1622 -1.7247 -30.7954 1.2472 0.0000 14.9888 2.6950 20.3636 -7.7038 33.1476 -0.0000 26.2537 29.7324 -35.8991 -25.4250 -54.3059 7.9355 40.8542 -5.2776 -0.0000 -7.7437 -1.1103 6.7262 9.3956 32.8623 0.0000 -24.3270 -28.9050 1.1673 1.7364 0.6839 -0.0000 -0.0000 -7.0245 -0.7751 -1.2189 2.8089 0.0000 0.0000 -27.2186 -7.6063 1.7414 -1.0731 0.0000 -0.0000 -9.7528 -8.4453 7.7527 15.5468 0.0000 0.0000
 -0.2567 32.3966 -6.1321 33.8713 3.3154 -1.8252 -39.7554 -2.6528 -1.0430 10.6505 -7.4912 -6.8568 29.3194 31.0284 24.6407 -60.1615 -1.7186 -30.8214 1.2545 0.0000 14.9948 2.7019 20.4086 -7.7070 33.1476 -0.0000 26.2537 29.7283 -35.8919 -25.4193 -54.3047 7.9301 40.8589 -5.2810 -0.0000 -7.8004 -1.1244 6.7806 9.4387 32.8623 0.0000 -24.3270 -28.9163 1.1584 1.7397 0.6823 -0.0000 0.0000 -7.0271 -0.7665 -1.2189 2.7773 0.0000 0.0000 -27.2290 -7.6068 1.7453 -1.0743 -0.0000 -0.0000 -9.7506 -8.4330 7.7368 15.5316 0.0000 -0.0000
 -0.2556 32.3951 -6.1281 33.8749 3.3370 -1.8110 -39.7610 -2.6633 -1.0612 10.6566 -7.4894 -6.8621 29.3434 31.0333 24.6227 -60.1837 -1.7053 -30.8331 1.2612 0.0000 15.0368 2.7024 20.3747 -7.7206 33.1476 -0.0000 26.2537 29.7424 -35.8970 -25.4112 -54.3176 7.9185 40.8649 -5.2631 -0.0000 -7.8599 -1.1312 6.7767 9.4998 32.8623 0.0000 -24.3270 -28.9138 1.1507 1.7165 0.6847 0.0000 -0.0000 -7.0300 -0.7814 -1.2102 2.7638 -0.0000 -0.0000 -27.2282 -7.6366 1.7185 -1.0711 -0.0000 -0.0000 -9.7668 -8.4161 7.7693 15.4735 0.0000 -0.0000
